# Blender v2.78 (sub 0) OBJ File: 'sword.blend'
# www.blender.org
o Sword_Body_Sword_Mesh
v 0.024835 0.391071 -0.010246
v 0.024835 0.391071 0.011611
v 0.029993 1.153591 0.022959
v 0.080617 1.153591 0.000682
v 0.029993 1.153591 -0.021594
v 0.049669 0.391071 0.000682
v 0.025881 0.391071 -0.012547
v 0.025881 0.391071 0.013912
v 0.055945 0.391071 0.000682
v 0.025881 0.383444 -0.012547
v 0.025881 0.383444 0.013912
v 0.055945 0.383444 0.000682
v 0.179318 0.387752 0.001696
v 0.056267 0.387752 -0.027851
v 0.056267 0.387752 0.031243
v 0.179318 0.350500 0.001696
v 0.056267 0.350500 -0.027851
v 0.056267 0.350500 0.031243
v 0.024538 0.558727 0.008569
v 0.042461 0.558727 0.000682
v 0.024538 0.558727 -0.007204
v 0.131592 0.350500 0.001696
v 0.057097 0.350500 -0.010524
v 0.057097 0.350500 0.014750
v 0.045551 0.332137 0.013185
v 0.045551 0.332137 -0.009106
v 0.041245 0.301826 0.011056
v 0.041245 0.301826 -0.007061
v 0.035616 0.240314 0.009521
v 0.035616 0.240314 -0.005584
v 0.033226 0.189676 0.008407
v 0.033226 0.189676 -0.004512
v 0.035713 0.141511 0.008395
v 0.035713 0.141511 -0.004501
v 0.036692 0.094278 0.010809
v 0.036692 0.094278 -0.006849
v 0.039559 0.053663 0.013411
v 0.039559 0.053663 -0.009358
v 0.043747 0.038731 0.015865
v 0.043747 0.038731 -0.011725
v 0.043747 0.022305 0.015865
v 0.043747 0.022305 -0.011725
v 0.024555 -0.000093 0.008113
v 0.024555 -0.000093 -0.004249
v -0.024835 0.391071 -0.010246
v -0.024835 0.391071 0.011611
v -0.029993 1.153591 0.022959
v -0.080617 1.153591 0.000682
v -0.029993 1.153591 -0.021594
v -0.049669 0.391071 0.000682
v 0.000000 0.391071 -0.009272
v 0.000000 1.153591 -0.019609
v 0.000000 0.391071 0.010637
v 0.000000 1.153591 0.020974
v -0.025881 0.391071 -0.012547
v -0.025881 0.391071 0.013912
v -0.055945 0.391071 0.000682
v 0.000000 0.391071 -0.011368
v 0.000000 0.391071 0.012733
v -0.025881 0.383444 -0.012547
v -0.025881 0.383444 0.013912
v -0.055945 0.383444 0.000682
v 0.000000 0.383444 0.012733
v 0.000000 0.383444 -0.011368
v -0.179318 0.387752 0.001696
v -0.056267 0.387752 -0.027851
v 0.000000 0.387752 0.031243
v -0.056267 0.387752 0.031243
v 0.000000 0.387752 -0.027851
v -0.179318 0.350500 0.001696
v -0.056267 0.350500 -0.027851
v 0.000000 0.350500 0.031243
v -0.056267 0.350500 0.031243
v 0.000000 0.350500 -0.027851
v 0.000000 1.360812 0.000106
v -0.024538 0.558727 0.008569
v 0.000000 0.558727 -0.006501
v 0.000000 0.558727 0.007866
v -0.042461 0.558727 0.000682
v -0.024538 0.558727 -0.007204
v 0.000000 1.329414 0.005904
v 0.000000 1.329423 -0.005201
v -0.131592 0.350500 0.001696
v -0.057097 0.350500 -0.010524
v 0.000000 0.350500 0.027418
v -0.057097 0.350500 0.014750
v 0.000000 0.350500 -0.024359
v 0.000000 0.331777 0.025379
v -0.045551 0.332137 0.013185
v -0.045551 0.332137 -0.009106
v 0.000000 0.331777 -0.022130
v 0.000000 0.300003 0.020839
v -0.041245 0.301826 0.011056
v -0.041245 0.301826 -0.007061
v 0.000000 0.300003 -0.017511
v 0.000000 0.241210 0.017937
v -0.035616 0.240314 0.009521
v -0.035616 0.240314 -0.005584
v 0.000000 0.241210 -0.014571
v 0.000000 0.189748 0.015644
v -0.033226 0.189676 0.008407
v -0.033226 0.189676 -0.004512
v 0.000000 0.189748 -0.012240
v 0.000000 0.141010 0.015437
v -0.035713 0.141511 0.008395
v -0.035713 0.141511 -0.004501
v 0.000000 0.141010 -0.012023
v 0.000000 0.094278 0.013966
v -0.036692 0.094278 0.010809
v -0.036692 0.094278 -0.006849
v 0.000000 0.094278 -0.010646
v 0.000000 0.053663 0.017482
v -0.039559 0.053663 0.013411
v -0.039559 0.053663 -0.009358
v 0.000000 0.053663 -0.014254
v 0.000000 0.038731 0.020798
v 0.000000 0.038731 -0.017658
v -0.043747 0.038731 0.015865
v -0.043747 0.038731 -0.011725
v 0.000000 0.022305 0.020798
v 0.000000 0.022305 -0.017658
v -0.043747 0.022305 0.015865
v -0.043747 0.022305 -0.011725
v 0.000000 -0.000093 0.010323
v 0.000000 -0.000093 -0.006907
v -0.024555 -0.000093 0.008113
v -0.024555 -0.000093 -0.004249
vt 0.6191 0.9336
vt 0.6317 0.8355
vt 0.6278 0.9337
vt 0.1110 0.9290
vt 0.1216 0.8129
vt 0.1191 0.9290
vt 0.0757 0.8054
vt 0.0863 0.9215
vt 0.0634 0.9216
vt 0.5892 0.8291
vt 0.6018 0.9272
vt 0.5913 0.9273
vt 0.8529 0.8390
vt 0.8555 0.8134
vt 0.8577 0.8390
vt 0.8503 0.8123
vt 0.8801 0.7878
vt 0.9098 0.8123
vt 0.9047 0.8134
vt 0.9072 0.8390
vt 0.9025 0.8390
vt 0.8675 0.8720
vt 0.8505 0.8980
vt 0.8503 0.8720
vt 0.8676 0.8980
vt 0.8503 0.9241
vt 0.8505 0.8980
vt 0.8675 0.9241
vt 0.8505 0.9570
vt 0.8677 0.8390
vt 0.8505 0.8390
vt 0.8995 0.9365
vt 0.9340 0.9632
vt 0.8969 0.9632
vt 0.5722 0.5675
vt 0.6243 0.6488
vt 0.5720 0.6488
vt 0.8697 0.9055
vt 0.8010 0.9051
vt 0.8675 0.7782
vt 0.9340 0.9051
vt 0.8400 0.9365
vt 0.8010 0.9632
vt 0.6246 0.5675
vt 0.6767 0.6032
vt 0.6245 0.6032
vt 0.6245 0.6844
vt 0.5722 0.6844
vt 0.6769 0.6844
vt 0.6246 0.6844
vt 0.6212 0.8354
vt 0.6317 0.8065
vt 0.0987 0.9557
vt 0.5972 0.8013
vt 0.5884 0.8014
vt 0.0828 0.7726
vt 0.0716 0.7727
vt 0.1182 0.9617
vt 0.6270 0.9613
vt 0.6018 0.9562
vt 0.8072 0.8948
vt 0.8737 0.8171
vt 0.8462 0.8940
vt 0.9402 0.8948
vt 0.8737 0.7679
vt 0.8151 0.9528
vt 0.8072 0.9528
vt 0.9316 0.9528
vt 0.9031 0.8940
vt 0.0987 0.8127
vt 0.1340 0.7787
vt 0.6191 0.9336
vt 0.1216 0.8129
vt 0.1110 0.9290
vt 0.1191 0.9290
vt 0.0757 0.8054
vt 0.0863 0.9215
vt 0.0838 0.8053
vt 0.5892 0.8291
vt 0.5979 0.8290
vt 0.8555 0.8134
vt 0.8801 0.7878
vt 0.8503 0.8123
vt 0.9098 0.8123
vt 0.8801 0.7813
vt 0.9047 0.8134
vt 0.8675 0.8720
vt 0.8503 0.8720
vt 0.8503 0.9241
vt 0.8505 0.9570
vt 0.8675 0.9241
vt 0.8677 0.8390
vt 0.8505 0.8390
vt 0.8995 0.9365
vt 0.6243 0.6488
vt 0.5722 0.5675
vt 0.5720 0.6488
vt 0.8697 0.9055
vt 0.8010 0.9051
vt 0.8400 0.9365
vt 0.9340 0.9051
vt 0.8426 0.9632
vt 0.6767 0.6032
vt 0.6245 0.6032
vt 0.6769 0.6844
vt 0.6246 0.6844
vt 0.6212 0.8354
vt 0.0634 0.9216
vt 0.5884 0.8014
vt 0.0828 0.7726
vt 0.0716 0.7727
vt 0.1182 0.9617
vt 0.1070 0.9617
vt 0.6183 0.9613
vt 0.5913 0.9273
vt 0.8072 0.8948
vt 0.8737 0.8171
vt 0.8737 0.7679
vt 0.9402 0.8948
vt 0.9402 0.9528
vt 0.9031 0.8940
vt 0.8462 0.8940
vt 0.0987 0.8127
vt 0.0838 0.8053
vt 0.8801 0.7813
vt 0.8677 0.8980
vt 0.8676 0.9570
vt 0.6245 0.5675
vt 0.6769 0.5675
vt 0.0985 0.9618
vt 0.1070 0.9617
vt 0.6183 0.9613
vt 0.1338 0.7725
vt 0.8676 0.9570
vt 0.6245 0.5675
vt 0.8675 0.7782
vt 0.6077 0.4708
vt 0.5487 0.4604
vt 0.6072 0.4602
vt 0.6082 0.4602
vt 0.6617 0.4431
vt 0.6665 0.4603
vt 0.6077 0.4708
vt 0.6803 0.4708
vt 0.6993 0.3516
vt 0.7287 0.3619
vt 0.7010 0.3619
vt 0.6092 0.4420
vt 0.6552 0.4081
vt 0.7261 0.3791
vt 0.7036 0.3791
vt 0.5535 0.4431
vt 0.6062 0.4421
vt 0.6055 0.4086
vt 0.5626 0.3793
vt 0.6049 0.3793
vt 0.7242 0.4141
vt 0.7054 0.4141
vt 0.5600 0.4081
vt 0.6557 0.3319
vt 0.6847 0.3816
vt 0.6557 0.3816
vt 0.6098 0.4086
vt 0.6525 0.3793
vt 0.7228 0.4428
vt 0.7067 0.4428
vt 0.6504 0.4303
vt 0.6048 0.3516
vt 0.6104 0.3516
vt 0.6556 0.3519
vt 0.9720 0.9213
vt 0.9388 0.9304
vt 0.9420 0.9213
vt 0.5595 0.3519
vt 0.6044 0.3250
vt 0.6108 0.3250
vt 0.6563 0.3250
vt 0.6902 0.4303
vt 0.6448 0.4722
vt 0.5588 0.3250
vt 0.6052 0.3019
vt 0.6101 0.3019
vt 0.6593 0.3019
vt 0.7929 0.1083
vt 0.8401 0.1002
vt 0.8401 0.1083
vt 0.8742 0.8106
vt 0.8449 0.8057
vt 0.8769 0.8057
vt 0.8135 0.8106
vt 0.8429 0.8057
vt 0.8424 0.8106
vt 0.7815 0.1165
vt 0.8061 0.1290
vt 0.7908 0.1290
vt 0.8158 0.1071
vt 0.7815 0.1071
vt 0.8431 0.1083
vt 0.8900 0.1002
vt 0.8900 0.1083
vt 0.9459 0.1379
vt 0.9303 0.1259
vt 0.9435 0.1259
vt 0.8431 0.1002
vt 0.8712 0.0892
vt 0.8117 0.0892
vt 0.8380 0.0892
vt 0.5487 0.4604
vt 0.5349 0.4708
vt 0.6617 0.4431
vt 0.6665 0.4603
vt 0.6803 0.4708
vt 0.6993 0.3516
vt 0.7287 0.3619
vt 0.7307 0.3516
vt 0.6552 0.4081
vt 0.7010 0.3619
vt 0.7261 0.3791
vt 0.5535 0.4431
vt 0.5626 0.3793
vt 0.5600 0.4081
vt 0.7036 0.3791
vt 0.7242 0.4141
vt 0.6557 0.3319
vt 0.6847 0.3816
vt 0.6848 0.3319
vt 0.6525 0.3793
vt 0.7054 0.4141
vt 0.7228 0.4428
vt 0.6504 0.4303
vt 0.6557 0.3816
vt 0.6103 0.3793
vt 0.9388 0.9304
vt 0.9720 0.9213
vt 0.9420 0.9213
vt 0.5595 0.3519
vt 0.6556 0.3519
vt 0.6902 0.4303
vt 0.6448 0.4722
vt 0.6960 0.4722
vt 0.5588 0.3250
vt 0.6563 0.3250
vt 0.7929 0.1083
vt 0.8742 0.8106
vt 0.8453 0.8106
vt 0.8135 0.8106
vt 0.7815 0.1165
vt 0.8061 0.1290
vt 0.8158 0.1165
vt 0.8158 0.1071
vt 0.7815 0.1071
vt 0.8900 0.1002
vt 0.8900 0.1083
vt 0.9303 0.1259
vt 0.9275 0.1379
vt 0.8712 0.0892
vt 0.8117 0.0892
vt 0.7929 0.1002
vt 0.5349 0.4708
vt 0.7307 0.3516
vt 0.6848 0.3319
vt 0.9752 0.9304
vt 0.6960 0.4722
vt 0.5558 0.3019
vt 0.7929 0.1002
vt 0.8108 0.8057
vt 0.8158 0.1165
vt 0.8450 0.0892
vt 0.7067 0.4428
vt 0.9752 0.9304
vt 0.5558 0.3019
vt 0.6593 0.3019
vt 0.8769 0.8057
vt 0.8108 0.8057
vt 0.7908 0.1290
vt 0.9435 0.1259
vn -0.0286 -0.0220 0.9993
vn 0.4026 -0.0258 0.9150
vn 0.4026 -0.0258 -0.9150
vn -0.0660 -0.0235 -0.9975
vn 0.0000 1.0000 0.0000
vn -0.0455 0.0000 -0.9990
vn -0.0455 0.0000 0.9990
vn 0.4028 0.0000 0.9153
vn 0.4028 0.0000 -0.9153
vn 0.0115 0.9674 0.2529
vn 0.2335 0.0000 -0.9724
vn -0.0334 0.9897 -0.1392
vn -0.0652 0.9868 0.1483
vn 0.0000 0.9705 -0.2412
vn 0.0000 0.0000 1.0000
vn 0.0000 0.0000 -1.0000
vn 0.2335 0.0000 0.9724
vn -0.0658 0.0852 0.9942
vn 0.3981 0.1522 -0.9046
vn -0.0392 0.0181 -0.9991
vn 0.4027 0.0173 -0.9152
vn 0.4027 0.0173 0.9152
vn -0.0286 0.0165 0.9995
vn -0.0658 0.0815 -0.9945
vn 0.0000 -1.0000 0.0000
vn 0.3979 0.1556 0.9042
vn 0.0286 -0.0220 0.9993
vn -0.4026 -0.0258 0.9150
vn -0.4026 -0.0258 -0.9150
vn 0.0286 -0.0220 -0.9993
vn 0.0455 0.0000 -0.9990
vn 0.0455 0.0000 0.9990
vn -0.4028 0.0000 0.9153
vn -0.4028 0.0000 -0.9153
vn -0.0115 0.9674 0.2529
vn -0.2335 0.0000 -0.9724
vn 0.0610 0.9885 -0.1387
vn 0.0652 0.9868 0.1483
vn -0.0103 0.9739 -0.2267
vn -0.2335 0.0000 0.9724
vn 0.0658 0.0852 0.9942
vn -0.3981 0.1522 -0.9046
vn 0.0392 0.0181 -0.9991
vn -0.4027 0.0173 -0.9152
vn -0.4027 0.0173 0.9152
vn 0.0392 0.0181 0.9991
vn 0.0658 0.0815 -0.9945
vn -0.3979 0.1556 0.9042
vn -0.0660 -0.0235 0.9975
vn -0.0286 -0.0220 -0.9993
vn 0.0000 0.9626 0.2710
vn -0.0610 0.9885 -0.1387
vn -0.0357 0.9882 0.1488
vn 0.0103 0.9739 -0.2267
vn 0.3993 0.1528 -0.9040
vn -0.0286 0.0165 -0.9995
vn -0.0392 0.0181 0.9991
vn 0.4177 0.1650 0.8935
vn 0.0660 -0.0235 0.9975
vn 0.0660 -0.0235 -0.9975
vn 0.0334 0.9897 -0.1392
vn 0.0357 0.9882 0.1488
vn -0.3993 0.1528 -0.9040
vn 0.0286 0.0165 -0.9995
vn 0.0286 0.0165 0.9995
vn -0.4177 0.1650 0.8935
vn 0.0000 -0.8084 -0.5886
vn 0.7084 -0.3100 -0.6341
vn 0.0000 -0.1238 -0.9923
vn 0.0000 -0.1181 0.9930
vn 0.7816 -0.1272 0.6106
vn 0.7016 -0.3108 0.6412
vn 0.0000 -0.8016 0.5978
vn 0.2569 -0.9510 0.1717
vn 0.2615 -0.9499 -0.1713
vn 0.0000 -0.0940 0.9955
vn 0.7787 -0.0695 0.6235
vn 0.7864 -0.1266 -0.6046
vn 0.0000 -0.0956 -0.9954
vn 0.0000 -0.0439 -0.9990
vn 0.7771 -0.0109 -0.6293
vn 0.0000 -0.0249 -0.9997
vn 0.7835 -0.0691 -0.6175
vn 0.7723 0.0284 0.6346
vn 0.7765 0.0287 -0.6294
vn 0.0000 -0.0435 0.9991
vn 0.7726 -0.0110 0.6348
vn 0.7390 0.0753 -0.6695
vn 0.0000 -0.0125 -0.9999
vn 0.0000 -0.0137 0.9999
vn 0.7157 0.2109 0.6658
vn 0.7518 0.1440 -0.6435
vn 0.7233 0.2089 -0.6582
vn 0.0000 0.0535 -0.9986
vn 0.0000 0.0522 0.9986
vn 0.7329 0.0761 0.6761
vn 0.0000 0.1518 -0.9884
vn 0.0000 0.1485 0.9889
vn 0.0000 -0.2121 -0.9772
vn 0.0000 0.1074 -0.9942
vn 0.0000 0.1053 0.9944
vn 0.7443 0.1451 0.6518
vn 0.7312 -0.3131 -0.6061
vn 0.3511 -0.8253 0.4422
vn 0.3567 -0.8259 -0.4365
vn 0.7242 -0.3136 0.6141
vn 0.0000 -0.8299 0.5579
vn 0.0000 -0.2089 0.9779
vn 0.0000 -0.8300 -0.5578
vn -0.7084 -0.3100 -0.6341
vn -0.2615 -0.9499 -0.1713
vn -0.7816 -0.1272 0.6106
vn -0.7016 -0.3108 0.6412
vn -0.2569 -0.9510 0.1717
vn -0.7787 -0.0695 0.6235
vn -0.7864 -0.1266 -0.6046
vn -0.7771 -0.0109 -0.6293
vn -0.7835 -0.0691 -0.6175
vn -0.7723 0.0284 0.6346
vn -0.7726 -0.0110 0.6348
vn -0.7390 0.0753 -0.6695
vn -0.7765 0.0287 -0.6294
vn 0.0000 -0.0245 0.9997
vn -0.7518 0.1440 -0.6435
vn -0.7157 0.2109 0.6658
vn -0.7233 0.2089 -0.6582
vn -0.7329 0.0761 0.6761
vn -0.7312 -0.3131 -0.6061
vn -0.3511 -0.8253 0.4422
vn -0.7242 -0.3136 0.6141
vn -0.7443 0.1451 0.6518
vn -0.3567 -0.8259 -0.4365
s off
f 19/1/1 54/2/1 78/3/1
f 20/4/2 3/5/2 19/6/2
f 20/7/3 5/8/3 4/9/3
f 21/10/4 52/11/4 5/12/4
f 59/13/5 2/14/5 53/15/5
f 8/16/5 6/17/5 2/14/5
f 6/17/5 7/18/5 1/19/5
f 1/19/5 58/20/5 51/21/5
f 10/22/6 58/23/6 7/24/6
f 63/25/7 8/26/7 59/27/7
f 11/28/8 9/29/8 8/26/8
f 12/30/9 7/24/9 9/31/9
f 10/32/10 69/33/10 64/34/10
f 13/35/11 17/36/11 14/37/11
f 12/38/12 15/39/12 13/40/12
f 12/38/13 14/41/13 10/32/13
f 11/42/14 67/43/14 15/39/14
f 67/44/15 18/45/15 15/46/15
f 14/37/16 74/47/16 69/48/16
f 15/46/17 16/49/17 13/50/17
f 54/2/18 3/51/18 81/52/18
f 82/53/19 4/9/19 5/8/19
f 51/54/20 21/10/20 1/55/20
f 1/56/21 20/7/21 6/57/21
f 2/58/22 20/4/22 19/6/22
f 53/59/23 19/1/23 78/3/23
f 52/11/24 82/60/24 5/12/24
f 17/61/25 22/62/25 23/63/25
f 18/64/25 22/62/25 16/65/25
f 17/61/25 87/66/25 74/67/25
f 18/64/25 85/68/25 24/69/25
f 24/69/25 23/63/25 22/62/25
f 4/70/26 81/71/26 3/5/26
f 54/2/27 76/72/27 78/3/27
f 47/73/28 79/74/28 76/75/28
f 79/76/29 49/77/29 80/78/29
f 80/79/30 52/11/30 77/80/30
f 46/81/5 59/13/5 53/15/5
f 50/82/5 56/83/5 46/81/5
f 50/82/5 55/84/5 57/85/5
f 45/86/5 58/20/5 55/84/5
f 58/23/31 60/87/31 55/88/31
f 56/89/32 63/25/32 59/27/32
f 57/90/33 61/91/33 56/89/33
f 55/88/34 62/92/34 57/93/34
f 69/33/35 60/94/35 64/34/35
f 71/95/36 65/96/36 66/97/36
f 62/98/37 68/99/37 61/100/37
f 66/101/38 62/98/38 60/94/38
f 61/100/39 67/43/39 63/102/39
f 73/103/15 67/44/15 68/104/15
f 74/47/16 66/97/16 69/48/16
f 70/105/40 68/104/40 65/106/40
f 54/2/41 81/52/41 47/107/41
f 48/108/42 82/53/42 49/77/42
f 80/79/43 51/54/43 45/109/43
f 79/76/44 45/110/44 50/111/44
f 46/112/45 79/74/45 50/113/45
f 53/59/46 76/72/46 46/114/46
f 52/11/47 49/115/47 82/60/47
f 71/116/25 83/117/25 70/118/25
f 83/117/25 73/119/25 70/118/25
f 87/66/25 71/116/25 74/67/25
f 73/119/25 85/68/25 72/120/25
f 86/121/25 83/117/25 84/122/25
f 81/71/48 48/123/48 47/73/48
f 19/1/49 3/51/49 54/2/49
f 20/4/2 4/70/2 3/5/2
f 20/7/3 21/124/3 5/8/3
f 21/10/50 77/80/50 52/11/50
f 59/13/5 8/16/5 2/14/5
f 8/16/5 9/125/5 6/17/5
f 6/17/5 9/125/5 7/18/5
f 1/19/5 7/18/5 58/20/5
f 10/22/6 64/126/6 58/23/6
f 63/25/7 11/28/7 8/26/7
f 11/28/8 12/127/8 9/29/8
f 12/30/9 10/22/9 7/24/9
f 10/32/51 14/41/51 69/33/51
f 13/35/11 16/128/11 17/36/11
f 12/38/52 11/42/52 15/39/52
f 12/38/53 13/40/53 14/41/53
f 11/42/54 63/102/54 67/43/54
f 67/44/15 72/129/15 18/45/15
f 14/37/16 17/36/16 74/47/16
f 15/46/17 18/45/17 16/49/17
f 82/53/55 75/130/55 4/9/55
f 51/54/56 77/80/56 21/10/56
f 1/56/21 21/124/21 20/7/21
f 2/58/22 6/131/22 20/4/22
f 53/59/57 2/132/57 19/1/57
f 17/61/25 16/65/25 22/62/25
f 18/64/25 24/69/25 22/62/25
f 17/61/25 23/63/25 87/66/25
f 18/64/25 72/120/25 85/68/25
f 4/70/58 75/133/58 81/71/58
f 54/2/59 47/107/59 76/72/59
f 47/73/28 48/123/28 79/74/28
f 79/76/29 48/108/29 49/77/29
f 80/79/60 49/115/60 52/11/60
f 46/81/5 56/83/5 59/13/5
f 50/82/5 57/85/5 56/83/5
f 50/82/5 45/86/5 55/84/5
f 45/86/5 51/21/5 58/20/5
f 58/23/31 64/126/31 60/87/31
f 56/89/32 61/91/32 63/25/32
f 57/90/33 62/134/33 61/91/33
f 55/88/34 60/87/34 62/92/34
f 69/33/51 66/101/51 60/94/51
f 71/95/36 70/135/36 65/96/36
f 62/98/61 65/136/61 68/99/61
f 66/101/62 65/136/62 62/98/62
f 61/100/14 68/99/14 67/43/14
f 73/103/15 72/129/15 67/44/15
f 74/47/16 71/95/16 66/97/16
f 70/105/40 73/103/40 68/104/40
f 48/108/63 75/130/63 82/53/63
f 80/79/64 77/80/64 51/54/64
f 79/76/44 80/78/44 45/110/44
f 46/112/45 76/75/45 79/74/45
f 53/59/65 78/3/65 76/72/65
f 71/116/25 84/122/25 83/117/25
f 83/117/25 86/121/25 73/119/25
f 87/66/25 84/122/25 71/116/25
f 73/119/25 86/121/25 85/68/25
f 81/71/66 75/133/66 48/123/66
s 1
f 87/137/67 26/138/68 91/139/69
f 88/140/70 27/141/71 25/142/72
f 85/143/73 25/142/72 24/144/74
f 23/145/75 25/146/72 26/147/68
f 92/148/76 29/149/77 27/141/71
f 26/147/68 27/150/71 28/151/78
f 91/139/69 28/152/78 95/153/79
f 99/154/80 32/155/81 103/156/82
f 28/151/78 29/157/77 30/158/83
f 95/153/79 30/159/83 99/154/80
f 32/160/81 33/161/84 34/162/85
f 96/163/86 31/164/87 29/149/77
f 30/158/83 31/165/87 32/166/81
f 33/161/84 36/167/88 34/162/85
f 32/155/81 107/168/89 103/156/82
f 31/164/87 104/169/90 33/170/84
f 37/171/91 40/172/92 38/173/93
f 34/174/85 111/175/94 107/168/89
f 33/170/84 108/176/95 35/177/96
f 35/178/96 38/179/93 36/167/88
f 36/180/88 115/181/97 111/175/94
f 35/177/96 112/182/98 37/183/91
f 40/184/92 121/185/99 117/186/100
f 37/187/91 116/188/101 39/189/102
f 38/190/93 117/191/100 115/192/97
f 42/193/103 43/194/104 44/195/105
f 39/196/102 42/193/103 40/197/92
f 116/198/101 41/199/106 39/200/102
f 124/201/107 44/202/105 43/203/104
f 120/204/108 43/205/104 41/199/106
f 121/185/99 44/206/105 125/207/109
f 87/137/67 90/208/110 84/209/111
f 93/210/112 88/140/70 89/211/113
f 89/211/113 85/143/73 86/212/114
f 84/213/111 89/214/113 86/215/114
f 97/216/115 92/148/76 93/210/112
f 90/217/110 93/218/112 89/214/113
f 91/139/69 94/219/116 90/208/110
f 99/154/80 102/220/117 98/221/118
f 94/222/116 97/223/115 93/218/112
f 95/153/79 98/221/118 94/219/116
f 102/224/117 105/225/119 101/226/120
f 101/227/120 96/163/86 97/216/115
f 98/228/118 101/229/120 97/223/115
f 110/230/121 105/225/119 106/231/122
f 107/168/89 102/220/117 103/156/82
f 101/227/120 104/169/90 100/232/123
f 119/233/124 113/234/125 114/235/126
f 111/175/94 106/236/122 107/168/89
f 105/237/119 108/176/95 104/169/90
f 109/238/127 114/239/126 113/240/125
f 115/181/97 110/241/121 111/175/94
f 109/242/127 112/182/98 108/176/95
f 121/185/99 119/243/124 117/186/100
f 113/244/125 116/188/101 112/245/98
f 117/191/100 114/246/126 115/192/97
f 123/247/128 126/248/129 122/249/130
f 123/247/128 118/250/131 119/251/124
f 122/252/130 116/198/101 118/253/131
f 124/201/107 127/254/132 125/255/109
f 126/256/129 120/204/108 122/252/130
f 121/185/99 127/257/132 123/258/128
f 87/137/67 23/259/75 26/138/68
f 88/140/70 92/148/76 27/141/71
f 85/143/73 88/140/70 25/142/72
f 23/145/75 24/260/74 25/146/72
f 92/148/76 96/163/86 29/149/77
f 26/147/68 25/146/72 27/150/71
f 91/139/69 26/138/68 28/152/78
f 99/154/80 30/159/83 32/155/81
f 28/151/78 27/150/71 29/157/77
f 95/153/79 28/152/78 30/159/83
f 32/160/81 31/261/87 33/161/84
f 96/163/86 100/232/123 31/164/87
f 30/158/83 29/157/77 31/165/87
f 33/161/84 35/178/96 36/167/88
f 32/155/81 34/174/85 107/168/89
f 31/164/87 100/232/123 104/169/90
f 37/171/91 39/262/102 40/172/92
f 34/174/85 36/180/88 111/175/94
f 33/170/84 104/169/90 108/176/95
f 35/178/96 37/263/91 38/179/93
f 36/180/88 38/264/93 115/181/97
f 35/177/96 108/176/95 112/182/98
f 40/184/92 42/265/103 121/185/99
f 37/187/91 112/245/98 116/188/101
f 38/190/93 40/266/92 117/191/100
f 42/193/103 41/267/106 43/194/104
f 39/196/102 41/267/106 42/193/103
f 116/198/101 120/204/108 41/199/106
f 124/201/107 125/255/109 44/202/105
f 120/204/108 124/268/107 43/205/104
f 121/185/99 42/265/103 44/206/105
f 87/137/67 91/139/69 90/208/110
f 93/210/112 92/148/76 88/140/70
f 89/211/113 88/140/70 85/143/73
f 84/213/111 90/217/110 89/214/113
f 97/216/115 96/163/86 92/148/76
f 90/217/110 94/222/116 93/218/112
f 91/139/69 95/153/79 94/219/116
f 99/154/80 103/156/82 102/220/117
f 94/222/116 98/228/118 97/223/115
f 95/153/79 99/154/80 98/221/118
f 102/224/117 106/231/122 105/225/119
f 101/227/120 100/232/123 96/163/86
f 98/228/118 102/269/117 101/229/120
f 110/230/121 109/238/127 105/225/119
f 107/168/89 106/236/122 102/220/117
f 101/227/120 105/237/119 104/169/90
f 119/233/124 118/270/131 113/234/125
f 111/175/94 110/241/121 106/236/122
f 105/237/119 109/242/127 108/176/95
f 109/238/127 110/230/121 114/239/126
f 115/181/97 114/271/126 110/241/121
f 109/242/127 113/272/125 112/182/98
f 121/185/99 123/258/128 119/243/124
f 113/244/125 118/273/131 116/188/101
f 117/191/100 119/274/124 114/246/126
f 123/247/128 127/275/132 126/248/129
f 123/247/128 122/249/130 118/250/131
f 122/252/130 120/204/108 116/198/101
f 124/201/107 126/276/129 127/254/132
f 126/256/129 124/268/107 120/204/108
f 121/185/99 125/207/109 127/257/132
